Pontano.ufo
<glyph name="quotedbl" format="1">
  <advance width="510"/>
  <unicode hex="0022"/>
  <outline>
    <contour>
      <point x="406" y="1000" type="line"/>
      <point x="357" y="1000" type="line"/>
      <point x="315" y="1464" type="line"/>
      <point x="447" y="1464" type="line"/>
    </contour>
    <contour>
      <point x="149" y="1000" type="line"/>
      <point x="100" y="1000" type="line"/>
      <point x="58" y="1464" type="line"/>
      <point x="190" y="1464" type="line"/>
    </contour>
  </outline>
</glyph>
<glyph name="dollar" format="1">
  <advance width="1216"/>
  <unicode hex="0024"/>
  <outline>
    <contour>
      <point x="601" y="1672" type="line"/>
      <point x="690" y="1672" type="line"/>
      <point x="690" y="-204" type="line"/>
      <point x="601" y="-204" type="line"/>
    </contour>
    <component base="S"/>
  </outline>
</glyph>
<glyph name="percent" format="1">
  <advance width="1677"/>
  <unicode hex="0025"/>
  <outline>
    <contour>
      <point x="1309" y="93" type="curve"/>
      <point x="1177" y="93"/>
      <point x="1112" y="212"/>
      <point x="1112" y="348" type="curve"/>
      <point x="1112" y="484"/>
      <point x="1177" y="604"/>
      <point x="1309" y="604" type="curve"/>
      <point x="1441" y="604"/>
      <point x="1507" y="487"/>
      <point x="1507" y="348" type="curve"/>
      <point x="1507" y="212"/>
      <point x="1441" y="93"/>
    </contour>
    <contour>
      <point x="1309" y="0" type="curve"/>
      <point x="1512" y="0"/>
      <point x="1616" y="175"/>
      <point x="1616" y="348" type="curve"/>
      <point x="1616" y="521"/>
      <point x="1512" y="696"/>
      <point x="1309" y="696" type="curve"/>
      <point x="1106" y="696"/>
      <point x="1002" y="521"/>
      <point x="1002" y="348" type="curve"/>
      <point x="1002" y="175"/>
      <point x="1106" y="0"/>
    </contour>
    <contour>
      <point x="357" y="863" type="curve"/>
      <point x="225" y="863"/>
      <point x="160" y="982"/>
      <point x="160" y="1118" type="curve"/>
      <point x="160" y="1254"/>
      <point x="225" y="1374"/>
      <point x="357" y="1374" type="curve"/>
      <point x="489" y="1374"/>
      <point x="555" y="1257"/>
      <point x="555" y="1118" type="curve"/>
      <point x="555" y="982"/>
      <point x="489" y="863"/>
    </contour>
    <contour>
      <point x="357" y="770" type="curve"/>
      <point x="560" y="770"/>
      <point x="664" y="945"/>
      <point x="664" y="1118" type="curve"/>
      <point x="664" y="1291"/>
      <point x="560" y="1466"/>
      <point x="357" y="1466" type="curve"/>
      <point x="154" y="1466"/>
      <point x="50" y="1291"/>
      <point x="50" y="1118" type="curve"/>
      <point x="50" y="945"/>
      <point x="154" y="770"/>
    </contour>
    <contour>
      <point x="268" y="-14" type="line"/>
      <point x="1503" y="1415" type="line"/>
      <point x="1426" y="1481" type="line"/>
      <point x="190" y="52" type="line"/>
    </contour>
  </outline>
</glyph>
<glyph name="ampersand" format="1">
  <advance width="1430"/>
  <unicode hex="0026"/>
  <outline>
    <contour>
      <point x="548" y="982" type="line" smooth="yes"/>
      <point x="479" y="1060"/>
      <point x="456" y="1141"/>
      <point x="460" y="1210" type="curve" smooth="yes"/>
      <point x="466" y="1314"/>
      <point x="569" y="1374"/>
      <point x="678" y="1374" type="curve" smooth="yes"/>
      <point x="782" y="1374"/>
      <point x="882" y="1315"/>
      <point x="882" y="1205" type="curve" smooth="yes"/>
      <point x="882" y="1116"/>
      <point x="816" y="1000"/>
      <point x="548" y="893" type="curve" smooth="yes"/>
      <point x="221" y="762"/>
      <point x="98" y="615"/>
      <point x="98" y="409" type="curve" smooth="yes"/>
      <point x="98" y="169"/>
      <point x="292" y="-25"/>
      <point x="582" y="-25" type="curve" smooth="yes"/>
      <point x="897" y="-25"/>
      <point x="1248" y="178"/>
      <point x="1311" y="782" type="curve"/>
      <point x="1188" y="801" type="line"/>
      <point x="1150" y="399"/>
      <point x="943" y="93"/>
      <point x="603" y="93" type="curve" smooth="yes"/>
      <point x="350" y="93"/>
      <point x="244" y="254"/>
      <point x="244" y="415" type="curve" smooth="yes"/>
      <point x="244" y="557"/>
      <point x="318" y="669"/>
      <point x="617" y="811" type="curve" smooth="yes"/>
      <point x="817" y="906"/>
      <point x="1010" y="1017"/>
      <point x="1010" y="1211" type="curve" smooth="yes"/>
      <point x="1010" y="1393"/>
      <point x="861" y="1491"/>
      <point x="673" y="1491" type="curve" smooth="yes"/>
      <point x="495" y="1491"/>
      <point x="331" y="1392"/>
      <point x="325" y="1210" type="curve" smooth="yes"/>
      <point x="322" y="1112"/>
      <point x="354" y="1024"/>
      <point x="428" y="940" type="curve" smooth="yes"/>
      <point x="1284" y="-24" type="line"/>
      <point x="1371" y="61" type="line"/>
    </contour>
  </outline>
</glyph>
<glyph name="parenleft" format="1">
  <advance width="602"/>
  <unicode hex="0028"/>
  <outline>
    <contour>
      <point x="34" y="703" type="curve"/>
      <point x="34" y="164"/>
      <point x="232" y="-112"/>
      <point x="523" y="-181" type="curve"/>
      <point x="552" y="-96" type="line"/>
      <point x="282" y="-20"/>
      <point x="184" y="289"/>
      <point x="184" y="703" type="curve"/>
      <point x="184" y="1117"/>
      <point x="282" y="1426"/>
      <point x="552" y="1502" type="curve"/>
      <point x="523" y="1587" type="line"/>
      <point x="232" y="1518"/>
      <point x="34" y="1242"/>
    </contour>
  </outline>
</glyph>
<glyph name="parenright" format="1">
  <advance width="602"/>
  <unicode hex="0029"/>
  <outline>
    <contour>
      <point x="552" y="703" type="curve"/>
      <point x="552" y="1242"/>
      <point x="354" y="1518"/>
      <point x="63" y="1587" type="curve"/>
      <point x="34" y="1502" type="line"/>
      <point x="304" y="1426"/>
      <point x="402" y="1117"/>
      <point x="402" y="703" type="curve"/>
      <point x="402" y="289"/>
      <point x="304" y="-20"/>
      <point x="34" y="-96" type="curve"/>
      <point x="63" y="-181" type="line"/>
      <point x="354" y="-112"/>
      <point x="552" y="164"/>
    </contour>
  </outline>
</glyph>
<glyph name="zero" format="1">
  <advance width="1246"/>
  <unicode hex="0030"/>
  <outline>
    <contour>
      <point x="114" y="724" type="curve"/>
      <point x="114" y="262"/>
      <point x="283" y="-24"/>
      <point x="623" y="-24" type="curve"/>
      <point x="963" y="-24"/>
      <point x="1132" y="262"/>
      <point x="1132" y="724" type="curve"/>
      <point x="1132" y="1186"/>
      <point x="963" y="1489"/>
      <point x="623" y="1489" type="curve"/>
      <point x="283" y="1489"/>
      <point x="114" y="1186"/>
    </contour>
    <contour>
      <point x="269" y="724" type="curve"/>
      <point x="269" y="1151"/>
      <point x="390" y="1372"/>
      <point x="623" y="1372" type="curve"/>
      <point x="856" y="1372"/>
      <point x="977" y="1151"/>
      <point x="977" y="724" type="curve"/>
      <point x="977" y="297"/>
      <point x="856" y="93"/>
      <point x="623" y="93" type="curve"/>
      <point x="390" y="93"/>
      <point x="269" y="297"/>
    </contour>
  </outline>
</glyph>
<glyph name="one" format="1">
  <advance width="777"/>
  <unicode hex="0031"/>
  <outline>
    <contour>
      <point x="365" y="1328" type="line"/>
      <point x="365" y="0" type="line"/>
      <point x="511" y="0" type="line"/>
      <point x="511" y="1464" type="line"/>
      <point x="382" y="1464" type="line"/>
      <point x="105" y="1344" type="line"/>
      <point x="149" y="1228" type="line"/>
    </contour>
  </outline>
</glyph>
<glyph name="five" format="1">
  <advance width="1163"/>
  <unicode hex="0035"/>
  <outline>
    <contour>
      <point x="608" y="928" type="curve" smooth="yes"/>
      <point x="930" y="928"/>
      <point x="1072" y="703"/>
      <point x="1072" y="461" type="curve" smooth="yes"/>
      <point x="1072" y="181.273"/>
      <point x="892" y="-24"/>
      <point x="583" y="-24" type="curve" smooth="yes"/>
      <point x="366" y="-24"/>
      <point x="190" y="75.9063"/>
      <point x="99" y="309" type="curve"/>
      <point x="223" y="359" type="line"/>
      <point x="296" y="192"/>
      <point x="428" y="93"/>
      <point x="575" y="93" type="curve" smooth="yes"/>
      <point x="803" y="93"/>
      <point x="923" y="264"/>
      <point x="923" y="453" type="curve" smooth="yes"/>
      <point x="923" y="634"/>
      <point x="817" y="808"/>
      <point x="602" y="808" type="curve" smooth="yes"/>
      <point x="485" y="808"/>
      <point x="374" y="768"/>
      <point x="278" y="685" type="curve"/>
      <point x="185" y="744" type="line"/>
      <point x="281" y="1464" type="line"/>
      <point x="982" y="1464" type="line"/>
      <point x="982" y="1337" type="line"/>
      <point x="412" y="1337" type="line"/>
      <point x="338" y="821" type="line"/>
      <point x="298" y="823" type="line"/>
      <point x="395" y="903"/>
      <point x="528" y="928"/>
    </contour>
  </outline>
</glyph>
<glyph name="less" format="1">
  <advance width="1051"/>
  <unicode hex="003c"/>
  <outline>
    <contour>
      <point x="998" y="241" type="line" smooth="no"/>
      <point x="998" y="103" type="line" smooth="no"/>
      <point x="49" y="469" type="line" smooth="no"/>
      <point x="49" y="595" type="line" smooth="no"/>
      <point x="998" y="950" type="line" smooth="no"/>
      <point x="998" y="798" type="line" smooth="no"/>
      <point x="211" y="525" type="line" smooth="no"/>
    </contour>
  </outline>
</glyph>
<glyph name="greater" format="1">
  <advance width="1051"/>
  <unicode hex="003e"/>
  <outline>
    <contour>
      <point x="53" y="812" type="line" smooth="no"/>
      <point x="53" y="950" type="line" smooth="no"/>
      <point x="1002" y="584" type="line" smooth="no"/>
      <point x="1002" y="458" type="line" smooth="no"/>
      <point x="53" y="103" type="line" smooth="no"/>
      <point x="53" y="255" type="line" smooth="no"/>
      <point x="840" y="528" type="line" smooth="no"/>
    </contour>
  </outline>
</glyph>
<glyph name="D" format="1">
  <advance width="1397.0"/>
  <unicode hex="0044"/>
  <outline>
    <contour>
      <point x="223" y="1464" type="curve"/>
      <point x="652.0" y="1464.0" type="line" smooth="yes"/>
      <point x="1064" y="1464"/>
      <point x="1287.0" y="1280.0"/>
      <point x="1287.0" y="738.0" type="curve" smooth="yes"/>
      <point x="1287.0" y="203.0"/>
      <point x="1083" y="0"/>
      <point x="645.0" y="0.0" type="curve" smooth="yes"/>
      <point x="223" y="0" type="line"/>
      <point x="223" y="0"/>
      <point x="223" y="112"/>
      <point x="223" y="112" type="curve"/>
      <point x="597.0" y="112.0" type="line" smooth="yes"/>
      <point x="1008" y="112"/>
      <point x="1140" y="288"/>
      <point x="1140" y="737" type="curve" smooth="yes"/>
      <point x="1140" y="1131"/>
      <point x="1037" y="1352"/>
      <point x="653.0" y="1352.0" type="curve" smooth="yes"/>
      <point x="223" y="1352" type="line"/>
      <point x="223" y="1352"/>
      <point x="223" y="1464"/>
    </contour>
    <component base="uc_main_stem"/>
  </outline>
</glyph>
<glyph name="E" format="1">
  <advance width="1202"/>
  <unicode hex="0045"/>
  <outline>
    <contour>
      <point x="224" y="1464" type="curve"/>
      <point x="1117.0" y="1464.0" type="line"/>
      <point x="1117.0" y="1352.0" type="line"/>
      <point x="225" y="1352" type="line"/>
      <point x="225" y="1352"/>
      <point x="224" y="1464"/>
    </contour>
    <contour>
      <point x="225" y="723"/>
      <point x="225" y="838"/>
      <point x="225" y="838" type="curve"/>
      <point x="1010.0" y="838.0" type="line"/>
      <point x="1010.0" y="723.0" type="line"/>
      <point x="225" y="723" type="line"/>
    </contour>
    <contour>
      <point x="1128.0" y="0.0" type="line"/>
      <point x="224" y="0" type="line"/>
      <point x="224" y="0"/>
      <point x="225" y="112"/>
      <point x="225" y="112" type="curve"/>
      <point x="1128.0" y="112.0" type="line"/>
    </contour>
    <component base="uc_main_stem"/>
  </outline>
</glyph>
<glyph name="F" format="1">
  <advance width="1178.66666667"/>
  <unicode hex="0046"/>
  <outline>
    <contour>
      <point x="1117.0" y="1352.0" type="line"/>
      <point x="219" y="1352" type="line"/>
      <point x="219" y="1352"/>
      <point x="219" y="1464"/>
      <point x="219" y="1464" type="curve"/>
      <point x="1117.0" y="1464.0" type="line"/>
    </contour>
    <contour>
      <point x="219" y="830" type="curve"/>
      <point x="1009.0" y="830.0" type="line"/>
      <point x="1009.0" y="716.0" type="line"/>
      <point x="219" y="716" type="line"/>
      <point x="219" y="716"/>
      <point x="219" y="830"/>
    </contour>
    <component base="uc_main_stem"/>
  </outline>
</glyph>
<glyph name="G" format="1">
  <advance width="1385"/>
  <unicode hex="0047"/>
  <outline>
    <contour>
      <point x="737" y="1491" type="curve" smooth="yes"/>
      <point x="981" y="1491"/>
      <point x="1155" y="1374"/>
      <point x="1241" y="1139" type="curve"/>
      <point x="1115" y="1095" type="line"/>
      <point x="1048" y="1276"/>
      <point x="917" y="1374"/>
      <point x="736" y="1374" type="curve" smooth="yes"/>
      <point x="402" y="1374"/>
      <point x="263" y="1149"/>
      <point x="263" y="721" type="curve" smooth="yes"/>
      <point x="263" y="319"/>
      <point x="398" y="93"/>
      <point x="736" y="93" type="curve" smooth="yes"/>
      <point x="902" y="93"/>
      <point x="1106" y="203"/>
      <point x="1106" y="444" type="curve" smooth="yes"/>
      <point x="1106" y="664" type="line"/>
      <point x="734" y="664" type="line"/>
      <point x="734" y="789" type="line"/>
      <point x="1250" y="789" type="line"/>
      <point x="1250" y="581" type="line" smooth="yes"/>
      <point x="1250" y="428"/>
      <point x="1240" y="0"/>
      <point x="1240" y="0" type="curve"/>
      <point x="1143" y="0" type="line"/>
      <point x="1115" y="184" type="line"/>
      <point x="1051" y="58"/>
      <point x="902" y="-25"/>
      <point x="718" y="-25" type="curve" smooth="yes"/>
      <point x="377" y="-25"/>
      <point x="110" y="168"/>
      <point x="110" y="722" type="curve" smooth="yes"/>
      <point x="110" y="1271"/>
      <point x="362" y="1491"/>
    </contour>
  </outline>
</glyph>
<glyph name="H" format="1">
  <advance width="1457"/>
  <unicode hex="0048"/>
  <outline>
    <contour>
      <point x="1235" y="836" type="line"/>
      <point x="1235" y="836"/>
      <point x="1235" y="720"/>
      <point x="1235" y="720" type="curve"/>
      <point x="228" y="720" type="line"/>
      <point x="228" y="720"/>
      <point x="228" y="836"/>
      <point x="228" y="836" type="curve"/>
    </contour>
    <component base="uc_main_stem" xOffset="1016"/>
    <component base="uc_main_stem"/>
  </outline>
</glyph>
<glyph name="I" format="1">
  <advance width="464"/>
  <unicode hex="0049"/>
  <outline>
    <contour>
      <point x="309" y="0" type="line" smooth="no"/>
      <point x="163" y="0" type="line" smooth="no"/>
      <point x="163" y="1464" type="line" smooth="no"/>
      <point x="309" y="1464" type="line" smooth="no"/>
    </contour>
  </outline>
</glyph>
<glyph name="J" format="1">
  <advance width="954"/>
  <unicode hex="004a"/>
  <outline>
    <contour>
      <point x="21" y="334" type="curve" smooth="no"/>
      <point x="151" y="369" type="line" smooth="no"/>
      <point x="189" y="198"/>
      <point x="255" y="93"/>
      <point x="417" y="93" type="curve" smooth="no"/>
      <point x="657" y="95"/>
      <point x="673" y="306"/>
      <point x="673" y="541" type="curve" smooth="yes"/>
      <point x="673" y="1464" type="line" smooth="no"/>
      <point x="818" y="1464" type="line" smooth="no"/>
      <point x="818" y="544" type="line" smooth="yes"/>
      <point x="818" y="166"/>
      <point x="718" y="-25"/>
      <point x="405" y="-25" type="curve" smooth="yes"/>
      <point x="179" y="-25"/>
      <point x="64" y="117"/>
    </contour>
  </outline>
</glyph>
<glyph name="K" format="1">
  <advance width="1252"/>
  <unicode hex="004B"/>
  <outline>
    <contour>
      <point x="615" y="969" type="line"/>
      <point x="1244" y="0" type="line"/>
      <point x="1077" y="0" type="line"/>
      <point x="515" y="867" type="line"/>
    </contour>
    <contour>
      <point x="1180" y="1464" type="line"/>
      <point x="1180" y="1464"/>
      <point x="229" y="483"/>
      <point x="229" y="483" type="curve"/>
      <point x="229" y="483"/>
      <point x="229" y="656"/>
      <point x="229" y="656" type="curve"/>
      <point x="1003" y="1464" type="line"/>
    </contour>
    <component base="uc_main_stem"/>
  </outline>
</glyph>
<glyph name="L" format="1">
  <advance width="1020"/>
  <unicode hex="004C"/>
  <outline>
    <contour>
      <point x="1041" y="0" type="line"/>
      <point x="224" y="0" type="line"/>
      <point x="224" y="0"/>
      <point x="224" y="112"/>
      <point x="224" y="112" type="curve"/>
      <point x="1041" y="112" type="line"/>
    </contour>
    <component base="uc_main_stem"/>
  </outline>
</glyph>
<glyph name="Q" format="1">
  <advance width="1434"/>
  <unicode hex="0051"/>
  <outline>
    <contour>
      <point x="1266" y="-345" type="line"/>
      <point x="976" y="77" type="line"/>
      <point x="1076" y="141" type="line"/>
      <point x="1374" y="-263" type="line"/>
    </contour>
    <component base="O"/>
  </outline>
</glyph>
<glyph name="S" format="1">
  <advance width="1216"/>
  <unicode hex="0053"/>
  <outline>
    <contour>
      <point x="618" y="1491" type="curve" smooth="yes"/>
      <point x="850" y="1491"/>
      <point x="1009" y="1420"/>
      <point x="1127" y="1240" type="curve"/>
      <point x="1019" y="1160" type="line"/>
      <point x="939" y="1302.67"/>
      <point x="797" y="1374"/>
      <point x="639" y="1374" type="curve" smooth="yes"/>
      <point x="446" y="1374"/>
      <point x="284" y="1307.72"/>
      <point x="284" y="1137" type="curve" smooth="yes"/>
      <point x="284" y="934.07"/>
      <point x="492" y="901"/>
      <point x="713" y="829" type="curve" smooth="yes"/>
      <point x="1001" y="735"/>
      <point x="1158" y="646"/>
      <point x="1158" y="393" type="curve" smooth="yes"/>
      <point x="1158" y="126"/>
      <point x="941" y="-25"/>
      <point x="615" y="-25" type="curve" smooth="yes"/>
      <point x="390" y="-25"/>
      <point x="101" y="69"/>
      <point x="45" y="373" type="curve"/>
      <point x="168" y="426" type="line"/>
      <point x="228.789" y="199.56"/>
      <point x="379.75" y="93"/>
      <point x="630" y="93" type="curve" smooth="yes"/>
      <point x="806.181" y="93"/>
      <point x="1005" y="160.84"/>
      <point x="1005" y="388" type="curve" smooth="yes"/>
      <point x="1005" y="584"/>
      <point x="882" y="631"/>
      <point x="565" y="731" type="curve" smooth="yes"/>
      <point x="328" y="806"/>
      <point x="131" y="880.413"/>
      <point x="131" y="1125" type="curve" smooth="yes"/>
      <point x="131" y="1378"/>
      <point x="372" y="1491"/>
    </contour>
  </outline>
</glyph>
<glyph name="T" format="1">
  <advance width="1119"/>
  <unicode hex="0054"/>
  <outline>
    <contour>
      <point x="9" y="1352" type="curve"/>
      <point x="9" y="1464" type="line"/>
      <point x="1110" y="1464" type="line"/>
      <point x="1110" y="1352" type="line"/>
      <point x="1110" y="1352"/>
      <point x="9" y="1352"/>
    </contour>
    <component base="uc_main_stem" xOffset="345"/>
  </outline>
</glyph>
<glyph name="X" format="1">
  <advance width="1245"/>
  <unicode hex="0058"/>
  <outline>
    <contour>
      <point x="1239" y="0" type="curve"/>
      <point x="1066" y="0" type="line"/>
      <point x="1066" y="0"/>
      <point x="51" y="1464"/>
      <point x="51" y="1464" type="curve"/>
      <point x="226" y="1464" type="line"/>
      <point x="226" y="1464"/>
      <point x="1239" y="0"/>
    </contour>
    <contour>
      <point x="625" y="886" type="curve"/>
      <point x="1029" y="1464" type="line"/>
      <point x="1195" y="1464" type="line"/>
      <point x="706" y="767" type="line"/>
      <point x="706" y="767"/>
      <point x="621" y="644"/>
      <point x="621" y="644" type="curve"/>
      <point x="173" y="0" type="line"/>
      <point x="6" y="0" type="line"/>
      <point x="540" y="763" type="line"/>
      <point x="540" y="763"/>
      <point x="625" y="886"/>
    </contour>
  </outline>
</glyph>
<glyph name="a" format="1">
  <advance width="999"/>
  <unicode hex="0061"/>
  <outline>
    <contour>
      <point x="736" y="228" type="line"/>
      <point x="649" y="121"/>
      <point x="544" y="73"/>
      <point x="423" y="73" type="curve" smooth="yes"/>
      <point x="293" y="73"/>
      <point x="235" y="124"/>
      <point x="235" y="243" type="curve" smooth="yes"/>
      <point x="235" y="380"/>
      <point x="294" y="433"/>
      <point x="609" y="480" type="curve" smooth="yes"/>
      <point x="736" y="500" type="line"/>
    </contour>
    <contour>
      <point x="756" y="0" type="line"/>
      <point x="878" y="0" type="line"/>
      <point x="878" y="673" type="line" smooth="yes"/>
      <point x="878" y="926"/>
      <point x="763" y="1044"/>
      <point x="522" y="1044" type="curve" smooth="yes"/>
      <point x="360" y="1044"/>
      <point x="239" y="999"/>
      <point x="133" y="918" type="curve"/>
      <point x="133" y="918"/>
      <point x="190" y="834"/>
      <point x="190" y="833" type="curve"/>
      <point x="289" y="909"/>
      <point x="400" y="942"/>
      <point x="514" y="942" type="curve" smooth="yes"/>
      <point x="686" y="942"/>
      <point x="736" y="879"/>
      <point x="736" y="647" type="curve" smooth="yes"/>
      <point x="736" y="589" type="line"/>
      <point x="628" y="573" type="line" smooth="yes"/>
      <point x="290" y="526"/>
      <point x="103" y="485"/>
      <point x="103" y="229" type="curve" smooth="yes"/>
      <point x="103" y="50"/>
      <point x="237" y="-25"/>
      <point x="398" y="-25" type="curve" smooth="yes"/>
      <point x="553" y="-25"/>
      <point x="668" y="30"/>
      <point x="743" y="133" type="curve"/>
    </contour>
  </outline>
</glyph>
<glyph name="b" format="1">
  <advance width="1079"/>
  <unicode hex="0062"/>
  <outline>
    <contour>
      <point x="577" y="-24" type="curve" smooth="yes"/>
      <point x="840" y="-24"/>
      <point x="987" y="190"/>
      <point x="987" y="502" type="curve" smooth="yes"/>
      <point x="987" y="849"/>
      <point x="829" y="1044"/>
      <point x="584" y="1044" type="curve" smooth="yes"/>
      <point x="366" y="1044"/>
      <point x="225" y="884"/>
      <point x="201" y="630" type="curve"/>
      <point x="201" y="361" type="line"/>
      <point x="223" y="142"/>
      <point x="329" y="-24"/>
    </contour>
    <contour>
      <point x="572" y="77" type="curve" smooth="yes"/>
      <point x="351" y="77"/>
      <point x="265" y="205"/>
      <point x="265" y="520" type="curve" smooth="yes"/>
      <point x="265" y="811"/>
      <point x="387" y="943"/>
      <point x="573" y="943" type="curve" smooth="yes"/>
      <point x="746" y="943"/>
      <point x="843" y="792"/>
      <point x="843" y="514" type="curve" smooth="yes"/>
      <point x="843" y="229"/>
      <point x="747" y="77"/>
    </contour>
    <component base="lc_ascender_stem_2" yOffset="-1"/>
  </outline>
</glyph>
<glyph name="d" format="1">
  <advance width="1077"/>
  <unicode hex="0064"/>
  <outline>
    <contour>
      <point x="502" y="-24" type="curve" smooth="yes"/>
      <point x="760" y="-24"/>
      <point x="857" y="164"/>
      <point x="881" y="377" type="curve"/>
      <point x="881" y="630" type="line"/>
      <point x="857" y="884"/>
      <point x="720" y="1044"/>
      <point x="502" y="1044" type="curve" smooth="yes"/>
      <point x="254" y="1044"/>
      <point x="92" y="856"/>
      <point x="92" y="502" type="curve" smooth="yes"/>
      <point x="92" y="190"/>
      <point x="239" y="-24"/>
    </contour>
    <contour>
      <point x="507" y="78" type="curve" smooth="yes"/>
      <point x="332" y="87"/>
      <point x="236" y="229"/>
      <point x="236" y="514" type="curve" smooth="yes"/>
      <point x="236" y="791"/>
      <point x="333" y="942"/>
      <point x="510" y="942" type="curve" smooth="yes"/>
      <point x="696" y="942"/>
      <point x="814" y="811"/>
      <point x="814" y="520" type="curve" smooth="yes"/>
      <point x="814" y="205"/>
      <point x="702" y="68"/>
    </contour>
    <component base="lc_ascender_stem_3" xOffset="-28"/>
  </outline>
</glyph>
<glyph name="f" format="1">
  <advance width="623"/>
  <unicode hex="0066"/>
  <outline>
    <contour>
      <point x="359" y="0" type="line"/>
      <point x="359" y="917" type="line"/>
      <point x="559" y="917" type="line"/>
      <point x="559" y="1023" type="line"/>
      <point x="359" y="1023" type="line"/>
      <point x="359" y="1146" type="line" smooth="yes"/>
      <point x="359" y="1305"/>
      <point x="371" y="1366"/>
      <point x="463" y="1366" type="curve" smooth="yes"/>
      <point x="505" y="1366"/>
      <point x="540" y="1353"/>
      <point x="571" y="1338" type="curve"/>
      <point x="608" y="1428" type="line"/>
      <point x="578" y="1449"/>
      <point x="517" y="1474"/>
      <point x="449" y="1474" type="curve" smooth="yes"/>
      <point x="274" y="1474"/>
      <point x="217" y="1363.67"/>
      <point x="217" y="1142" type="curve" smooth="yes"/>
      <point x="217" y="1023" type="line"/>
      <point x="44" y="1023" type="line"/>
      <point x="44" y="917" type="line"/>
      <point x="217" y="917" type="line"/>
      <point x="217" y="0" type="line"/>
    </contour>
  </outline>
</glyph>
<glyph name="g" format="1">
  <advance width="1074"/>
  <unicode hex="0067"/>
  <outline>
    <contour>
      <point x="524" y="-429" type="curve" smooth="yes"/>
      <point x="806" y="-426"/>
      <point x="955" y="-247"/>
      <point x="955" y="40" type="curve" smooth="yes"/>
      <point x="955" y="1023" type="line"/>
      <point x="833" y="1023" type="line"/>
      <point x="814" y="761" type="line" smooth="yes"/>
      <point x="814" y="36" type="line" smooth="yes"/>
      <point x="814" y="-186"/>
      <point x="725" y="-322"/>
      <point x="523" y="-322" type="curve" smooth="yes"/>
      <point x="376" y="-322"/>
      <point x="292" y="-276"/>
      <point x="221" y="-189" type="curve"/>
      <point x="145" y="-268" type="line"/>
      <point x="211" y="-352"/>
      <point x="339" y="-431"/>
    </contour>
    <contour>
      <point x="500" y="-24" type="curve" smooth="yes"/>
      <point x="747" y="-24"/>
      <point x="853" y="146"/>
      <point x="878" y="361" type="curve"/>
      <point x="878" y="630" type="line"/>
      <point x="854" y="883"/>
      <point x="715" y="1044"/>
      <point x="497" y="1044" type="curve" smooth="yes"/>
      <point x="249" y="1044"/>
      <point x="72" y="857"/>
      <point x="72" y="503" type="curve" smooth="yes"/>
      <point x="72" y="190"/>
      <point x="236" y="-24"/>
    </contour>
    <contour>
      <point x="506" y="77" type="curve" smooth="yes"/>
      <point x="330" y="77"/>
      <point x="215" y="228"/>
      <point x="216" y="514" type="curve" smooth="yes"/>
      <point x="217" y="787"/>
      <point x="330" y="943"/>
      <point x="505" y="943" type="curve" smooth="yes"/>
      <point x="692" y="943"/>
      <point x="814" y="816"/>
      <point x="814" y="520" type="curve" smooth="yes"/>
      <point x="814" y="205"/>
      <point x="727" y="77"/>
    </contour>
  </outline>
</glyph>
<glyph name="k" format="1">
  <advance width="1005"/>
  <unicode hex="006B"/>
  <outline>
    <contour>
      <point x="206" y="303" type="curve"/>
      <point x="206" y="303"/>
      <point x="962" y="1023"/>
      <point x="962" y="1023" type="curve"/>
      <point x="800" y="1023" type="line"/>
      <point x="206" y="455" type="line"/>
      <point x="206" y="455"/>
      <point x="206" y="303"/>
    </contour>
    <contour>
      <point x="855" y="0" type="line"/>
      <point x="1015" y="0" type="line"/>
      <point x="541" y="698" type="line"/>
      <point x="448" y="612" type="line"/>
    </contour>
    <component base="lc_ascender_stem"/>
  </outline>
</glyph>
<glyph name="m" format="1">
  <advance width="1782"/>
  <unicode hex="006D"/>
  <outline>
    <contour>
      <point x="1519" y="0" type="line"/>
      <point x="1661" y="0" type="line"/>
      <point x="1661" y="584" type="line" smooth="yes"/>
      <point x="1661" y="790"/>
      <point x="1642" y="1044"/>
      <point x="1319" y="1044" type="curve" smooth="yes"/>
      <point x="1067" y="1044"/>
      <point x="923" y="891"/>
      <point x="900" y="610" type="curve"/>
      <point x="900" y="610"/>
      <point x="965" y="494"/>
      <point x="965" y="494" type="curve" smooth="yes"/>
      <point x="965" y="742"/>
      <point x="1043" y="943"/>
      <point x="1299" y="943" type="curve" smooth="yes"/>
      <point x="1476" y="943"/>
      <point x="1519" y="812"/>
      <point x="1519" y="603" type="curve" smooth="yes"/>
    </contour>
    <contour>
      <point x="823" y="0" type="line"/>
      <point x="965" y="0" type="line"/>
      <point x="965" y="584" type="line" smooth="yes"/>
      <point x="965" y="790"/>
      <point x="946" y="1044"/>
      <point x="623" y="1044" type="curve" smooth="yes"/>
      <point x="371" y="1044"/>
      <point x="227" y="887"/>
      <point x="204" y="610" type="curve"/>
      <point x="204" y="610"/>
      <point x="269" y="499"/>
      <point x="269" y="499" type="curve" smooth="yes"/>
      <point x="269" y="747"/>
      <point x="349" y="943"/>
      <point x="603" y="943" type="curve" smooth="yes"/>
      <point x="780" y="943"/>
      <point x="823" y="812"/>
      <point x="823" y="603" type="curve" smooth="yes"/>
    </contour>
    <component base="lc_main_stem"/>
  </outline>
</glyph>
<glyph name="n" format="1">
  <advance width="1086"/>
  <unicode hex="006E"/>
  <outline>
    <contour>
      <point x="823" y="0" type="line"/>
      <point x="965" y="0" type="line"/>
      <point x="965" y="584" type="line" smooth="yes"/>
      <point x="965" y="787"/>
      <point x="944" y="1044"/>
      <point x="623" y="1044" type="curve" smooth="yes"/>
      <point x="369" y="1044"/>
      <point x="225" y="893"/>
      <point x="202" y="595" type="curve"/>
      <point x="202" y="595"/>
      <point x="268" y="509"/>
      <point x="268" y="509" type="curve" smooth="yes"/>
      <point x="268" y="752"/>
      <point x="349" y="943"/>
      <point x="601" y="943" type="curve" smooth="yes"/>
      <point x="778" y="943"/>
      <point x="823" y="816"/>
      <point x="823" y="605" type="curve" smooth="yes"/>
    </contour>
    <component base="lc_main_stem"/>
  </outline>
</glyph>
<glyph name="o" format="1">
  <advance width="1064"/>
  <unicode hex="006F"/>
  <outline>
    <contour>
      <point x="972" y="510" type="curve"/>
      <point x="972" y="860"/>
      <point x="797" y="1044"/>
      <point x="532" y="1044" type="curve"/>
      <point x="267" y="1044"/>
      <point x="92" y="860"/>
      <point x="92" y="510" type="curve"/>
      <point x="92" y="160"/>
      <point x="267" y="-24"/>
      <point x="532" y="-24" type="curve"/>
      <point x="797" y="-24"/>
      <point x="972" y="160"/>
    </contour>
    <contour>
      <point x="237" y="510" type="curve"/>
      <point x="237" y="721"/>
      <point x="298" y="943"/>
      <point x="532" y="943" type="curve"/>
      <point x="766" y="943"/>
      <point x="827" y="721"/>
      <point x="827" y="510" type="curve"/>
      <point x="827" y="299"/>
      <point x="766" y="77"/>
      <point x="532" y="77" type="curve"/>
      <point x="298" y="77"/>
      <point x="237" y="299"/>
    </contour>
  </outline>
</glyph>
<glyph name="p" format="1">
  <advance width="1082"/>
  <unicode hex="0070"/>
  <outline>
    <contour>
      <point x="580" y="-24" type="curve" smooth="yes"/>
      <point x="843" y="-24"/>
      <point x="990" y="190"/>
      <point x="990" y="502" type="curve" smooth="yes"/>
      <point x="990" y="856"/>
      <point x="828" y="1044"/>
      <point x="580" y="1044" type="curve" smooth="yes"/>
      <point x="362" y="1044"/>
      <point x="228" y="884"/>
      <point x="204" y="630" type="curve"/>
      <point x="204" y="361" type="line"/>
      <point x="226" y="142"/>
      <point x="332" y="-24"/>
    </contour>
    <contour>
      <point x="575" y="77" type="curve" smooth="yes"/>
      <point x="354" y="77"/>
      <point x="268" y="205"/>
      <point x="268" y="520" type="curve" smooth="yes"/>
      <point x="268" y="811"/>
      <point x="386" y="943"/>
      <point x="572" y="943" type="curve" smooth="yes"/>
      <point x="749" y="943"/>
      <point x="846" y="791"/>
      <point x="846" y="514" type="curve" smooth="yes"/>
      <point x="846" y="229"/>
      <point x="750" y="77"/>
    </contour>
    <component base="lc_descender_stem"/>
  </outline>
</glyph>
<glyph name="q" format="1">
  <advance width="1082"/>
  <unicode hex="0071"/>
  <outline>
    <contour>
      <point x="502" y="-24" type="curve" smooth="yes"/>
      <point x="750" y="-24"/>
      <point x="856" y="142"/>
      <point x="878" y="361" type="curve"/>
      <point x="878" y="630" type="line"/>
      <point x="854" y="884"/>
      <point x="720" y="1044"/>
      <point x="502" y="1044" type="curve" smooth="yes"/>
      <point x="254" y="1044"/>
      <point x="92" y="856"/>
      <point x="92" y="502" type="curve" smooth="yes"/>
      <point x="92" y="190"/>
      <point x="239" y="-24"/>
    </contour>
    <contour>
      <point x="507" y="77" type="curve" smooth="yes"/>
      <point x="332" y="77"/>
      <point x="236" y="229"/>
      <point x="236" y="514" type="curve" smooth="yes"/>
      <point x="236" y="791"/>
      <point x="333" y="943"/>
      <point x="510" y="943" type="curve" smooth="yes"/>
      <point x="696" y="943"/>
      <point x="814" y="811"/>
      <point x="814" y="520" type="curve" smooth="yes"/>
      <point x="814" y="205"/>
      <point x="728" y="77"/>
    </contour>
    <component base="lc_descender_stem_2" xOffset="686"/>
  </outline>
</glyph>
<glyph name="r" format="1">
  <advance width="626"/>
  <unicode hex="0072"/>
  <outline>
    <contour>
      <point x="269" y="532" type="curve" smooth="yes"/>
      <point x="269" y="717"/>
      <point x="349" y="903"/>
      <point x="578" y="903" type="curve"/>
      <point x="578" y="1029" type="line"/>
      <point x="390" y="1029"/>
      <point x="259" y="911"/>
      <point x="211" y="644" type="curve"/>
      <point x="211" y="644"/>
      <point x="269" y="532"/>
    </contour>
    <component base="lc_main_stem"/>
  </outline>
</glyph>
<glyph name="s" format="1">
  <advance width="913"/>
  <unicode hex="0073"/>
  <outline>
    <contour>
      <point x="829" y="841" type="curve"/>
      <point x="829" y="841"/>
      <point x="738" y="791"/>
      <point x="738" y="790" type="curve"/>
      <point x="692" y="897"/>
      <point x="618" y="943"/>
      <point x="483" y="943" type="curve" smooth="yes"/>
      <point x="307" y="943"/>
      <point x="239" y="881"/>
      <point x="239" y="761" type="curve" smooth="yes"/>
      <point x="239" y="639"/>
      <point x="287" y="619"/>
      <point x="497" y="577" type="curve" smooth="yes"/>
      <point x="741" y="528"/>
      <point x="841" y="472"/>
      <point x="841" y="283" type="curve" smooth="yes"/>
      <point x="841" y="83"/>
      <point x="720" y="-24"/>
      <point x="445" y="-24" type="curve" smooth="yes"/>
      <point x="291" y="-24"/>
      <point x="124" y="36"/>
      <point x="72" y="227" type="curve"/>
      <point x="177" y="269" type="line"/>
      <point x="224" y="138"/>
      <point x="295" y="77"/>
      <point x="458" y="77" type="curve" smooth="yes"/>
      <point x="603" y="77"/>
      <point x="717" y="122"/>
      <point x="717" y="263" type="curve" smooth="yes"/>
      <point x="717" y="416"/>
      <point x="672" y="418"/>
      <point x="405" y="477" type="curve" smooth="yes"/>
      <point x="210" y="520"/>
      <point x="105" y="560"/>
      <point x="105" y="761" type="curve" smooth="yes"/>
      <point x="105" y="944"/>
      <point x="256" y="1044"/>
      <point x="475" y="1044" type="curve" smooth="yes"/>
      <point x="652" y="1044"/>
      <point x="759" y="992"/>
    </contour>
  </outline>
</glyph>
<glyph name="u" format="1">
  <advance width="1086"/>
  <unicode hex="0075"/>
  <outline>
    <contour>
      <point x="263" y="1023" type="line"/>
      <point x="121" y="1023" type="line"/>
      <point x="121" y="462" type="line" smooth="yes"/>
      <point x="121" y="256"/>
      <point x="134" y="-18"/>
      <point x="463" y="-24" type="curve" smooth="yes"/>
      <point x="725" y="-29"/>
      <point x="856" y="130"/>
      <point x="882" y="420" type="curve"/>
      <point x="882" y="420"/>
      <point x="817" y="517"/>
      <point x="817" y="517" type="curve" smooth="yes"/>
      <point x="817" y="269"/>
      <point x="734" y="68"/>
      <point x="487" y="77" type="curve" smooth="yes"/>
      <point x="305" y="84"/>
      <point x="263" y="208"/>
      <point x="263" y="427" type="curve" smooth="yes"/>
    </contour>
    <component base="lc_main_stem" xOffset="690"/>
  </outline>
</glyph>
<glyph name="x" format="1">
  <advance width="966"/>
  <unicode hex="0078"/>
  <outline>
    <contour>
      <point x="413" y="526" type="line"/>
      <point x="413" y="526"/>
      <point x="479" y="606"/>
      <point x="479" y="606" type="curve"/>
      <point x="773" y="1023" type="line"/>
      <point x="926" y="1023" type="line"/>
      <point x="554" y="510" type="line"/>
      <point x="554" y="510"/>
      <point x="484" y="421"/>
      <point x="484" y="421" type="curve"/>
      <point x="184" y="0" type="line"/>
      <point x="31" y="0" type="line"/>
    </contour>
    <contour>
      <point x="32" y="1023" type="curve"/>
      <point x="188" y="1023" type="line"/>
      <point x="188" y="1023"/>
      <point x="938" y="0"/>
      <point x="938" y="0" type="curve"/>
      <point x="782" y="0" type="line"/>
      <point x="782" y="0"/>
      <point x="32" y="1023"/>
    </contour>
  </outline>
</glyph>
<glyph name="y" format="1">
  <advance width="971"/>
  <unicode hex="0079"/>
  <outline>
    <contour>
      <point x="187" y="-320" type="curve" smooth="yes"/>
      <point x="403" y="-329"/>
      <point x="473" y="-191"/>
      <point x="582" y="97" type="curve" smooth="yes"/>
      <point x="933" y="1023" type="line"/>
      <point x="793" y="1023" type="line"/>
      <point x="496" y="211" type="line"/>
      <point x="198" y="1023" type="line" smooth="yes"/>
      <point x="52" y="1023" type="line"/>
      <point x="424" y="64" type="line"/>
      <point x="404" y="4" type="line" smooth="yes"/>
      <point x="351" y="-155"/>
      <point x="300" y="-199"/>
      <point x="185" y="-199" type="curve" smooth="yes"/>
      <point x="159" y="-199"/>
      <point x="131" y="-196"/>
      <point x="98" y="-191" type="curve"/>
      <point x="82" y="-306" type="line"/>
      <point x="119" y="-316"/>
      <point x="154" y="-319"/>
    </contour>
  </outline>
</glyph>
<glyph name="bar" format="1">
  <advance width="416"/>
  <unicode hex="007c"/>
  <outline>
    <contour>
      <point x="281" y="-197" type="line" smooth="no"/>
      <point x="135" y="-197" type="line" smooth="no"/>
      <point x="135" y="1502" type="line" smooth="no"/>
      <point x="281" y="1502" type="line" smooth="no"/>
    </contour>
  </outline>
</glyph>
<glyph name="yen" format="1">
  <advance width="1162"/>
  <unicode hex="00A5"/>
  <outline>
    <contour>
      <point x="256" y="544" type="curve"/>
      <point x="256" y="630" type="line"/>
      <point x="256" y="630"/>
      <point x="910" y="630"/>
      <point x="910" y="630" type="curve"/>
      <point x="910" y="544" type="line"/>
      <point x="910" y="544"/>
      <point x="256" y="544"/>
    </contour>
    <contour>
      <point x="256" y="420"/>
      <point x="910" y="420"/>
      <point x="910" y="420" type="curve"/>
      <point x="910" y="334" type="line"/>
      <point x="910" y="334"/>
      <point x="256" y="334"/>
      <point x="256" y="334" type="curve"/>
      <point x="256" y="420" type="line"/>
    </contour>
    <component base="Y"/>
  </outline>
</glyph>
<glyph name="guillemotleft" format="1">
  <advance width="946"/>
  <unicode hex="00AB"/>
  <outline>
    <contour>
      <point x="936" y="1049" type="line"/>
      <point x="936" y="907" type="line"/>
      <point x="589" y="650" type="line"/>
      <point x="936" y="391" type="line"/>
      <point x="936" y="250" type="line"/>
      <point x="491" y="551" type="line"/>
      <point x="491" y="748" type="line"/>
    </contour>
    <contour>
      <point x="53" y="748" type="line"/>
      <point x="498" y="1049" type="line"/>
      <point x="498" y="907" type="line"/>
      <point x="151" y="650" type="line"/>
      <point x="498" y="391" type="line"/>
      <point x="498" y="250" type="line"/>
      <point x="53" y="551" type="line"/>
    </contour>
  </outline>
</glyph>
<glyph name="uni00B2" format="1">
  <advance width="1230"/>
  <unicode hex="00b2"/>
  <outline>
    <contour>
      <point x="860" y="859" type="line" smooth="no"/>
      <point x="530" y="859" type="line" smooth="no"/>
      <point x="621" y="1014"/>
      <point x="858" y="1058"/>
      <point x="858" y="1276" type="curve" smooth="yes"/>
      <point x="858" y="1419"/>
      <point x="736" y="1491"/>
      <point x="619" y="1491" type="curve" smooth="yes"/>
      <point x="513" y="1491"/>
      <point x="407" y="1437"/>
      <point x="364" y="1316" type="curve" smooth="no"/>
      <point x="379" y="1310"/>
      <point x="454" y="1272"/>
      <point x="454" y="1271" type="curve" smooth="no"/>
      <point x="472" y="1353"/>
      <point x="547" y="1396"/>
      <point x="618" y="1396" type="curve" smooth="yes"/>
      <point x="686" y="1396"/>
      <point x="750" y="1355"/>
      <point x="750" y="1269" type="curve" smooth="yes"/>
      <point x="750" y="1266" type="line" smooth="yes"/>
      <point x="750" y="1115"/>
      <point x="392" y="1004"/>
      <point x="385" y="779" type="curve" smooth="no"/>
      <point x="860" y="779" type="line" smooth="no"/>
    </contour>
  </outline>
</glyph>
<glyph name="acute" format="1">
  <advance width="496"/>
  <unicode hex="00B4"/>
  <outline>
    <contour>
      <point x="447" y="1492" type="line"/>
      <point x="141" y="1172" type="line"/>
      <point x="47" y="1173" type="line"/>
      <point x="252" y="1492" type="line"/>
    </contour>
  </outline>
</glyph>
<glyph name="periodcentered" format="1">
  <advance width="434"/>
  <unicode hex="00b7"/>
  <outline>
    <contour>
      <point x="135" y="758" type="line" smooth="no"/>
      <point x="299" y="758" type="line" smooth="no"/>
      <point x="299" y="543" type="line" smooth="no"/>
      <point x="135" y="543" type="line" smooth="no"/>
    </contour>
  </outline>
</glyph>
<glyph name="ordmasculine" format="1">
  <advance width="1000"/>
  <unicode hex="00BA"/>
  <outline>
    <contour>
      <point x="139" y="1028" type="curve" smooth="yes"/>
      <point x="139" y="737"/>
      <point x="295" y="583"/>
      <point x="516" y="583" type="curve" smooth="yes"/>
      <point x="737" y="583"/>
      <point x="893" y="738"/>
      <point x="893" y="1031" type="curve" smooth="yes"/>
      <point x="893" y="1331"/>
      <point x="726" y="1474"/>
      <point x="517" y="1474" type="curve" smooth="yes"/>
      <point x="305" y="1474"/>
      <point x="139" y="1330"/>
    </contour>
    <contour>
      <point x="517" y="682" type="curve" smooth="yes"/>
      <point x="341" y="682"/>
      <point x="270" y="855"/>
      <point x="270" y="1031" type="curve" smooth="yes"/>
      <point x="270" y="1204"/>
      <point x="341" y="1376"/>
      <point x="516" y="1376" type="curve" smooth="yes"/>
      <point x="690" y="1376"/>
      <point x="763" y="1204"/>
      <point x="763" y="1029" type="curve" smooth="yes"/>
      <point x="763" y="854"/>
      <point x="690" y="682"/>
    </contour>
  </outline>
</glyph>
<glyph name="Idieresis" format="1">
  <advance width="464"/>
  <unicode hex="00CF"/>
  <outline>
    <contour>
      <point x="503" y="1806" type="line"/>
      <point x="503" y="1632" type="line"/>
      <point x="337" y="1632" type="line"/>
      <point x="337" y="1806" type="line"/>
    </contour>
    <contour>
      <point x="-42" y="1806" type="line"/>
      <point x="124" y="1806" type="line"/>
      <point x="124" y="1632" type="line"/>
      <point x="-42" y="1632" type="line"/>
    </contour>
    <contour>
      <point x="309" y="0" type="line"/>
      <point x="163" y="0" type="line"/>
      <point x="163" y="1464" type="line"/>
      <point x="309" y="1464" type="line"/>
    </contour>
  </outline>
</glyph>
<glyph name="Idieresis" format="1">
  <advance width="464"/>
  <unicode hex="00cf"/>
  <outline>
    <contour>
      <point x="503" y="1806" type="line" smooth="no"/>
      <point x="503" y="1632" type="line" smooth="no"/>
      <point x="337" y="1632" type="line" smooth="no"/>
      <point x="337" y="1806" type="line" smooth="no"/>
    </contour>
    <contour>
      <point x="-42" y="1806" type="line" smooth="no"/>
      <point x="124" y="1806" type="line" smooth="no"/>
      <point x="124" y="1632" type="line" smooth="no"/>
      <point x="-42" y="1632" type="line" smooth="no"/>
    </contour>
    <contour>
      <point x="309" y="0" type="line" smooth="no"/>
      <point x="163" y="0" type="line" smooth="no"/>
      <point x="163" y="1464" type="line" smooth="no"/>
      <point x="309" y="1464" type="line" smooth="no"/>
    </contour>
  </outline>
</glyph>
<glyph name="Eth" format="1">
  <advance width="1444"/>
  <unicode hex="00D0"/>
  <outline>
    <contour>
      <point x="0.0" y="702.0" type="curve"/>
      <point x="0.0" y="788.0" type="line"/>
      <point x="0.0" y="788.0"/>
      <point x="550.0" y="788.0"/>
      <point x="550.0" y="788.0" type="curve"/>
      <point x="550.0" y="702.0" type="line"/>
      <point x="550.0" y="702.0"/>
      <point x="0.0" y="702.0"/>
    </contour>
    <component base="D"/>
  </outline>
</glyph>
<glyph name="ae" format="1">
  <advance width="1667"/>
  <unicode hex="00E6"/>
  <outline>
    <contour>
      <point x="133" y="927" type="line"/>
      <point x="247" y="1006"/>
      <point x="366" y="1044"/>
      <point x="518" y="1044" type="curve" smooth="yes"/>
      <point x="722" y="1044"/>
      <point x="836" y="955"/>
      <point x="864" y="733" type="curve"/>
      <point x="864" y="733"/>
      <point x="824" y="734"/>
      <point x="824" y="734" type="curve"/>
      <point x="869" y="943"/>
      <point x="1024" y="1044"/>
      <point x="1193" y="1044" type="curve" smooth="yes"/>
      <point x="1478" y="1044"/>
      <point x="1587" y="844"/>
      <point x="1587" y="572" type="curve" smooth="yes"/>
      <point x="1587" y="563"/>
      <point x="1586" y="523"/>
      <point x="1584" y="506" type="curve"/>
      <point x="839" y="493" type="line"/>
      <point x="900" y="524" type="line"/>
      <point x="900" y="264"/>
      <point x="981" y="78"/>
      <point x="1198" y="78" type="curve" smooth="yes"/>
      <point x="1374" y="78"/>
      <point x="1444" y="204"/>
      <point x="1474" y="276" type="curve"/>
      <point x="1570" y="234" type="line"/>
      <point x="1515" y="83"/>
      <point x="1379" y="-23"/>
      <point x="1195" y="-24" type="curve"/>
      <point x="1029" y="-24"/>
      <point x="828" y="72"/>
      <point x="813" y="320" type="curve"/>
      <point x="813" y="320"/>
      <point x="851" y="320"/>
      <point x="851" y="320" type="curve"/>
      <point x="826" y="78"/>
      <point x="671" y="-24"/>
      <point x="429" y="-24" type="curve" smooth="yes"/>
      <point x="241" y="-24"/>
      <point x="92" y="58"/>
      <point x="84" y="251" type="curve" smooth="yes"/>
      <point x="73" y="503"/>
      <point x="254" y="576"/>
      <point x="563" y="581" type="curve" smooth="yes"/>
      <point x="801" y="585" type="line"/>
      <point x="760" y="546" type="line"/>
      <point x="760" y="832"/>
      <point x="732" y="934"/>
      <point x="530" y="942" type="curve" smooth="yes"/>
      <point x="370" y="948"/>
      <point x="274" y="896"/>
      <point x="187" y="840" type="curve"/>
    </contour>
    <contour>
      <point x="760" y="414" type="curve" smooth="yes"/>
      <point x="760" y="527" type="line"/>
      <point x="800" y="486" type="line"/>
      <point x="570" y="482" type="line" smooth="yes"/>
      <point x="351" y="477"/>
      <point x="215" y="436"/>
      <point x="226" y="256" type="curve" smooth="yes"/>
      <point x="233" y="134"/>
      <point x="313" y="78"/>
      <point x="440" y="78" type="curve" smooth="yes"/>
      <point x="642" y="78"/>
      <point x="760" y="154"/>
    </contour>
    <contour>
      <point x="1465" y="550" type="line"/>
      <point x="1465" y="816"/>
      <point x="1387" y="942"/>
      <point x="1196" y="942" type="curve" smooth="yes"/>
      <point x="1012" y="942"/>
      <point x="900" y="790"/>
      <point x="901" y="562" type="curve"/>
      <point x="839" y="589" type="line"/>
      <point x="1504" y="601" type="line"/>
    </contour>
  </outline>
</glyph>
<glyph name="eth" format="1">
  <advance width="1053"/>
  <unicode hex="00F0"/>
  <outline>
    <contour>
      <point x="867" y="1424" type="curve"/>
      <point x="920" y="1349" type="line"/>
      <point x="920" y="1349"/>
      <point x="434" y="1032"/>
      <point x="434" y="1032" type="curve"/>
      <point x="381" y="1107" type="line"/>
      <point x="381" y="1107"/>
      <point x="867" y="1424"/>
    </contour>
    <contour>
      <point x="780" y="1006"/>
      <point x="622" y="1338"/>
      <point x="169" y="1338" type="curve"/>
      <point x="169" y="1432" type="line"/>
      <point x="799" y="1432"/>
      <point x="959.0" y="946.788838007"/>
      <point x="959" y="529" type="curve" smooth="yes"/>
      <point x="959" y="213"/>
      <point x="835" y="-24"/>
      <point x="518" y="-24" type="curve" smooth="yes"/>
      <point x="231" y="-24"/>
      <point x="94" y="208"/>
      <point x="94" y="454" type="curve" smooth="yes"/>
      <point x="94" y="746"/>
      <point x="294" y="906"/>
      <point x="503" y="908" type="curve" smooth="yes"/>
      <point x="617" y="909"/>
      <point x="730" y="867"/>
      <point x="810" y="772" type="curve"/>
    </contour>
    <contour>
      <point x="523" y="798" type="curve" smooth="yes"/>
      <point x="366" y="798"/>
      <point x="236" y="670"/>
      <point x="236" y="441" type="curve" smooth="yes"/>
      <point x="236" y="216"/>
      <point x="360" y="85"/>
      <point x="525" y="85" type="curve" smooth="yes"/>
      <point x="736" y="85"/>
      <point x="823" y="262"/>
      <point x="823" y="511" type="curve" smooth="yes"/>
      <point x="823" y="535"/>
      <point x="822" y="624"/>
      <point x="816" y="650" type="curve"/>
      <point x="724" y="748"/>
      <point x="629" y="798"/>
    </contour>
  </outline>
</glyph>
<glyph name="divide" format="1">
  <advance width="1024"/>
  <unicode hex="00f7"/>
  <outline>
    <contour>
      <point x="565" y="385" type="line" smooth="no"/>
      <point x="565" y="171" type="line" smooth="no"/>
      <point x="392" y="171" type="line" smooth="no"/>
      <point x="392" y="385" type="line" smooth="no"/>
    </contour>
    <contour>
      <point x="392" y="1024" type="line" smooth="no"/>
      <point x="565" y="1024" type="line" smooth="no"/>
      <point x="565" y="808" type="line" smooth="no"/>
      <point x="392" y="808" type="line" smooth="no"/>
    </contour>
    <contour>
      <point x="850" y="551" type="line" smooth="no"/>
      <point x="850" y="649" type="line" smooth="no"/>
      <point x="100" y="649" type="line" smooth="no"/>
      <point x="100" y="551" type="line" smooth="no"/>
    </contour>
  </outline>
</glyph>
<glyph name="oslash" format="1">
  <advance width="1104"/>
  <unicode hex="00F8"/>
  <outline>
    <contour>
      <point x="906" y="1178" type="line"/>
      <point x="834" y="1216" type="line"/>
      <point x="181" y="-159" type="line"/>
      <point x="254" y="-197" type="line"/>
    </contour>
    <component base="o"/>
  </outline>
</glyph>
<glyph name="dcroat" format="1">
  <advance width="1137"/>
  <unicode hex="0111"/>
  <outline>
    <contour>
      <point x="574" y="1201" type="line"/>
      <point x="574" y="1201"/>
      <point x="1094" y="1201"/>
      <point x="1094" y="1201" type="curve"/>
      <point x="1094" y="1287" type="line"/>
      <point x="1094" y="1287"/>
      <point x="574" y="1287"/>
      <point x="574" y="1287" type="curve"/>
    </contour>
    <component base="d"/>
  </outline>
</glyph>
<glyph name="hbar" format="1">
  <advance width="1117"/>
  <unicode hex="0127"/>
  <outline>
    <contour>
      <point x="0" y="1201" type="line"/>
      <point x="0" y="1201"/>
      <point x="520" y="1201"/>
      <point x="520" y="1201" type="curve"/>
      <point x="520" y="1287" type="line"/>
      <point x="520" y="1287"/>
      <point x="0" y="1287"/>
      <point x="0" y="1287" type="curve"/>
    </contour>
    <component base="h"/>
  </outline>
</glyph>
<glyph name="ij" format="1">
  <advance width="883"/>
  <unicode hex="0133"/>
  <outline>
    <contour>
      <point x="615" y="-91" type="curve" smooth="yes"/>
      <point x="615" y="1023" type="line"/>
      <point x="757" y="1023" type="line"/>
      <point x="757" y="-12" type="line" smooth="yes"/>
      <point x="757" y="-217"/>
      <point x="730" y="-325"/>
      <point x="538" y="-325" type="curve" smooth="yes"/>
      <point x="487" y="-325"/>
      <point x="424" y="-312"/>
      <point x="376" y="-284" type="curve"/>
      <point x="400" y="-177" type="line"/>
      <point x="438" y="-191"/>
      <point x="486" y="-208"/>
      <point x="519" y="-208" type="curve" smooth="yes"/>
      <point x="578" y="-208"/>
      <point x="615" y="-182"/>
    </contour>
    <contour>
      <point x="617" y="1242" type="line"/>
      <point x="617" y="1421" type="line"/>
      <point x="758" y="1421" type="line"/>
      <point x="758" y="1242" type="line"/>
    </contour>
    <contour>
      <point x="135" y="1242" type="line"/>
      <point x="135" y="1421" type="line"/>
      <point x="276" y="1421" type="line"/>
      <point x="276" y="1242" type="line"/>
    </contour>
    <contour>
      <point x="137" y="0" type="line"/>
      <point x="137" y="1023" type="line"/>
      <point x="279" y="1023" type="line"/>
      <point x="279" y="0" type="line"/>
    </contour>
  </outline>
</glyph>
<glyph name="kgreenlandic" format="1">
  <advance width="1010"/>
  <unicode hex="0138"/>
  <outline>
    <contour>
      <point x="550" y="653" type="line"/>
      <point x="464" y="564" type="line"/>
      <point x="858" y="0" type="line"/>
      <point x="1018" y="0" type="line"/>
    </contour>
    <contour>
      <point x="797" y="1023" type="line"/>
      <point x="203" y="372" type="line"/>
      <point x="203" y="372"/>
      <point x="203" y="231"/>
      <point x="203" y="231" type="curve"/>
      <point x="507" y="544" type="line"/>
      <point x="570" y="587" type="line"/>
      <point x="959" y="1023" type="line"/>
    </contour>
    <component base="lc_main_stem"/>
  </outline>
</glyph>
<glyph name="Lslash" format="1">
  <advance width="1055"/>
  <unicode hex="0141"/>
  <outline>
    <contour>
      <point x="-21" y="642" type="curve"/>
      <point x="-21" y="764" type="line"/>
      <point x="-21" y="764"/>
      <point x="589" y="1024"/>
      <point x="589" y="1024" type="curve"/>
      <point x="589" y="902" type="line"/>
      <point x="589" y="902"/>
      <point x="-21" y="642"/>
    </contour>
    <component base="L"/>
  </outline>
</glyph>
<glyph name="Lslash" format="1">
  <advance width="1055"/>
  <unicode hex="0141"/>
  <outline>
    <contour>
      <point x="-21" y="642" type="curve"/>
      <point x="-21" y="764" type="line"/>
      <point x="-21" y="764"/>
      <point x="589" y="1024"/>
      <point x="589" y="1024" type="curve"/>
      <point x="589" y="902" type="line"/>
      <point x="589" y="902"/>
      <point x="-21" y="642"/>
    </contour>
    <component base="L"/>
  </outline>
</glyph>
<glyph name="lslash" format="1">
  <advance width="421"/>
  <unicode hex="0142"/>
  <outline>
    <contour>
      <point x="-60" y="669" type="curve"/>
      <point x="-60" y="787" type="line"/>
      <point x="-60" y="787"/>
      <point x="457" y="1032"/>
      <point x="457" y="1032" type="curve"/>
      <point x="457" y="914" type="line"/>
      <point x="457" y="914"/>
      <point x="-60" y="669"/>
    </contour>
    <component base="l"/>
  </outline>
</glyph>
<glyph name="caron" format="1">
  <advance width="838"/>
  <unicode hex="02C7"/>
  <outline>
    <contour>
      <point x="337" y="1172" type="line"/>
      <point x="152" y="1492" type="line"/>
      <point x="249" y="1492" type="line"/>
      <point x="424" y="1239" type="line"/>
      <point x="600" y="1492" type="line"/>
      <point x="697" y="1492" type="line"/>
      <point x="512" y="1172" type="line"/>
    </contour>
  </outline>
</glyph>
<glyph name="ring" format="1">
  <advance width="728"/>
  <unicode hex="02DA"/>
  <outline>
    <contour>
      <point x="364" y="1390" type="curve"/>
      <point x="458" y="1390"/>
      <point x="506" y="1313"/>
      <point x="506" y="1239" type="curve"/>
      <point x="506" y="1165"/>
      <point x="458" y="1088"/>
      <point x="364" y="1088" type="curve"/>
      <point x="270" y="1088"/>
      <point x="222" y="1165"/>
      <point x="222" y="1239" type="curve"/>
      <point x="222" y="1313"/>
      <point x="270" y="1390"/>
    </contour>
    <contour>
      <point x="364" y="1004" type="curve"/>
      <point x="512" y="1004"/>
      <point x="604" y="1115"/>
      <point x="604" y="1239" type="curve"/>
      <point x="604" y="1363"/>
      <point x="512" y="1474"/>
      <point x="364" y="1474" type="curve"/>
      <point x="216" y="1474"/>
      <point x="124" y="1363"/>
      <point x="124" y="1239" type="curve"/>
      <point x="124" y="1115"/>
      <point x="216" y="1004"/>
    </contour>
  </outline>
</glyph>
<glyph name="hungarumlaut" format="1">
  <advance width="745"/>
  <unicode hex="02dd"/>
  <outline>
    <contour>
      <point x="192" y="1492" type="line" smooth="no"/>
      <point x="381" y="1492" type="line" smooth="no"/>
      <point x="153" y="1172" type="line" smooth="no"/>
      <point x="87" y="1172" type="line" smooth="no"/>
    </contour>
    <contour>
      <point x="490" y="1492" type="line" smooth="no"/>
      <point x="685" y="1492" type="line" smooth="no"/>
      <point x="428" y="1172" type="line" smooth="no"/>
      <point x="355" y="1172" type="line" smooth="no"/>
    </contour>
  </outline>
</glyph>
<glyph name="quotedblright" format="1">
  <advance width="631"/>
  <unicode hex="201D"/>
  <outline>
    <contour>
      <point x="401" y="1292" type="line"/>
      <point x="401" y="1464" type="line"/>
      <point x="601" y="1464" type="line"/>
      <point x="596" y="1285"/>
      <point x="612" y="1103"/>
      <point x="453" y="991" type="curve"/>
      <point x="402" y="1054" type="line"/>
      <point x="427" y="1075"/>
      <point x="479" y="1152"/>
      <point x="482" y="1273" type="curve"/>
    </contour>
    <contour>
      <point x="100" y="1292" type="curve" smooth="yes"/>
      <point x="100" y="1464" type="line"/>
      <point x="301" y="1464" type="line"/>
      <point x="297" y="1284"/>
      <point x="320" y="1104"/>
      <point x="160" y="991" type="curve"/>
      <point x="110" y="1054" type="line"/>
      <point x="136" y="1077"/>
      <point x="187" y="1154"/>
      <point x="190" y="1274" type="curve"/>
      <point x="190" y="1273"/>
      <point x="100" y="1291"/>
    </contour>
  </outline>
</glyph>
<glyph name="quotedblbase" format="1">
  <advance width="744"/>
  <unicode hex="201E"/>
  <outline>
    <contour>
      <point x="434" y="-81" type="curve" smooth="yes"/>
      <point x="434" y="93" type="line"/>
      <point x="628" y="93" type="line"/>
      <point x="624" y="-87"/>
      <point x="627" y="-269"/>
      <point x="467" y="-382" type="curve"/>
      <point x="418" y="-319" type="line"/>
      <point x="443" y="-296"/>
      <point x="494" y="-219"/>
      <point x="497" y="-99" type="curve"/>
      <point x="497" y="-99"/>
      <point x="434" y="-82"/>
    </contour>
    <contour>
      <point x="126" y="-81" type="curve"/>
      <point x="126" y="93" type="line"/>
      <point x="320" y="93" type="line"/>
      <point x="316" y="-87"/>
      <point x="319" y="-269"/>
      <point x="159" y="-382" type="curve"/>
      <point x="110" y="-319" type="line"/>
      <point x="135" y="-296"/>
      <point x="186" y="-219"/>
      <point x="189" y="-99" type="curve"/>
      <point x="189" y="-99"/>
      <point x="125" y="-82"/>
    </contour>
  </outline>
</glyph>
<glyph name="Euro" format="1">
  <advance width="1275"/>
  <unicode hex="20AC"/>
  <outline>
    <contour>
      <point x="-43" y="796"/>
      <point x="691" y="796"/>
      <point x="691" y="796" type="curve"/>
      <point x="691" y="892" type="line"/>
      <point x="691" y="892"/>
      <point x="-43" y="892"/>
      <point x="-43" y="892" type="curve"/>
      <point x="-43" y="796" type="line"/>
    </contour>
    <contour>
      <point x="691" y="553" type="curve"/>
      <point x="691" y="649" type="line"/>
      <point x="691" y="649"/>
      <point x="-43" y="649"/>
      <point x="-43" y="649" type="curve"/>
      <point x="-43" y="553" type="line"/>
      <point x="-43" y="553"/>
      <point x="691" y="553"/>
    </contour>
    <component base="C"/>
  </outline>
</glyph>
<glyph name="lc_ascender_stem" format="1">
  <advance width="1086"/>
  <outline>
    <contour>
      <point x="127" y="0" type="line"/>
      <point x="270" y="0" type="line"/>
      <point x="270" y="0"/>
      <point x="269" y="1474"/>
      <point x="269" y="1474" type="curve"/>
      <point x="127" y="1474" type="line"/>
    </contour>
  </outline>
</glyph>
<glyph name="lc_ascender_stem_2" format="1">
  <advance width="1078"/>
  <outline>
    <contour>
      <point x="128" y="0" type="line"/>
      <point x="238" y="0" type="line"/>
      <point x="238" y="0"/>
      <point x="270" y="758"/>
      <point x="270" y="758" type="curve"/>
      <point x="270" y="1474" type="line"/>
      <point x="128" y="1474" type="line"/>
    </contour>
  </outline>
</glyph>
<glyph name="lc_ascender_stem_3" format="1">
  <advance width="1078"/>
  <outline>
    <contour>
      <point x="977" y="0" type="line"/>
      <point x="977" y="1474" type="line"/>
      <point x="835" y="1474" type="line"/>
      <point x="835" y="758" type="line"/>
      <point x="835" y="758"/>
      <point x="867" y="0"/>
      <point x="867" y="0" type="curve"/>
    </contour>
  </outline>
</glyph>
<glyph name="lc_curved_stem" format="1">
  <advance width="1086"/>
  <outline>
    <contour>
      <point x="823" y="0" type="line"/>
      <point x="965" y="0" type="line"/>
      <point x="965" y="584" type="line" smooth="yes"/>
      <point x="965" y="790"/>
      <point x="946" y="1044"/>
      <point x="623" y="1044" type="curve" smooth="yes"/>
      <point x="371" y="1044"/>
      <point x="228" y="885"/>
      <point x="204" y="610" type="curve"/>
      <point x="204" y="610"/>
      <point x="269" y="499"/>
      <point x="269" y="499" type="curve" smooth="yes"/>
      <point x="269" y="747"/>
      <point x="344" y="942"/>
      <point x="603" y="942" type="curve" smooth="yes"/>
      <point x="780" y="942"/>
      <point x="823" y="812"/>
      <point x="823" y="603" type="curve" smooth="yes"/>
    </contour>
  </outline>
</glyph>
<glyph name="lc_descender_stem_2" format="1">
  <advance width="1057"/>
  <outline>
    <contour>
      <point x="127" y="-350" type="curve"/>
      <point x="269" y="-350" type="line"/>
      <point x="269" y="1023" type="line"/>
      <point x="147" y="1023" type="line"/>
      <point x="128" y="798" type="line"/>
      <point x="128" y="798"/>
      <point x="127" y="-350"/>
    </contour>
  </outline>
</glyph>
<glyph name="uc_main_stem" format="1">
  <advance width="1457"/>
  <outline>
    <contour>
      <point x="294" y="0" type="curve"/>
      <point x="148" y="0" type="line"/>
      <point x="148" y="1464" type="line"/>
      <point x="294" y="1464" type="line"/>
      <point x="294" y="1464"/>
      <point x="294" y="0"/>
    </contour>
  </outline>
</glyph>
